<?xml version="1.0" standalone="no"?>
<!DOCTYPE svg PUBLIC "-//W3C//DTD SVG 20010904//EN"
 "http://www.w3.org/TR/2001/REC-SVG-20010904/DTD/svg10.dtd">
<svg version="1.0" xmlns="http://www.w3.org/2000/svg"
 width="920.000000pt" height="920.000000pt" viewBox="0 0 920.000000 920.000000"
 preserveAspectRatio="xMidYMid meet">
<metadata>
Created by potrace 1.14, written by Peter Selinger 2001-2017
</metadata>
<g transform="translate(0.000000,920.000000) scale(0.100000,-0.100000)"
fill="#000000" stroke="none">
<path d="M5015 8279 c-40 -28 -65 -36 -65 -21 0 5 -39 8 -86 7 -47 0 -88 3
-91 8 -6 10 -181 -1 -203 -13 -13 -8 -13 -9 0 -10 67 -2 378 -32 470 -45 298
-42 688 -139 866 -216 71 -30 50 -4 -28 36 -40 21 -76 42 -79 48 -4 5 -11 7
-17 3 -5 -3 -13 1 -16 10 -4 10 -13 13 -27 9 -16 -5 -19 -4 -14 6 6 9 2 11
-13 7 -14 -4 -20 -2 -15 5 4 6 0 8 -9 4 -10 -3 -31 7 -55 27 -21 18 -49 39
-63 45 -24 12 -23 11 4 -15 34 -32 21 -42 -26 -20 -27 12 -103 29 -143 31 -5
0 -18 17 -28 38 -10 20 -24 37 -31 37 -8 0 -11 -12 -8 -37 5 -38 4 -38 -16
-19 -11 10 -40 20 -64 22 -80 8 -86 9 -94 17 -4 4 -22 5 -40 1 -18 -3 -34 -1
-38 5 -5 8 -13 8 -27 0 -30 -16 -36 -2 -10 25 33 35 12 38 -34 5z"/>
<path d="M4427 8239 c-37 -4 -86 -16 -110 -28 -23 -11 -54 -23 -69 -26 -14 -4
-36 -18 -49 -31 -12 -13 -28 -24 -36 -24 -7 0 -13 -7 -13 -15 0 -19 14 -19 29
-1 6 7 38 26 72 40 99 45 219 47 288 5 44 -26 35 -33 -19 -14 -75 27 -188 16
-279 -26 -71 -33 -153 -123 -184 -202 -15 -37 -27 -84 -27 -105 -1 -35 -1 -36
-16 -17 -15 19 -14 48 2 115 6 24 6 24 -8 5 -9 -11 -21 -50 -28 -87 -11 -56
-11 -76 0 -124 19 -78 46 -114 110 -147 52 -27 60 -29 155 -24 59 3 116 11
138 21 21 8 41 15 45 14 14 -3 83 15 77 20 -8 8 26 42 42 42 7 0 13 3 13 8 0
4 17 18 38 30 45 29 129 126 159 184 31 61 38 126 19 173 -25 58 -131 171
-188 200 -53 27 -55 27 -161 14z"/>
<path d="M4957 8134 c-7 -7 49 -86 67 -96 7 -4 64 -16 127 -27 239 -42 285
-51 462 -96 211 -52 433 -123 508 -160 56 -29 71 -29 39 0 -11 10 -20 28 -20
39 0 17 -2 18 -10 6 -9 -13 -10 -13 -10 0 0 17 -79 73 -120 85 -14 4 -29 11
-35 15 -13 9 -239 86 -290 99 -22 5 -74 18 -115 29 -227 58 -587 121 -603 106z"/>
<path d="M4890 8070 c6 -11 13 -20 16 -20 2 0 0 9 -6 20 -6 11 -13 20 -16 20
-2 0 0 -9 6 -20z"/>
<path d="M4931 7944 c0 -11 3 -14 6 -6 3 7 2 16 -1 19 -3 4 -6 -2 -5 -13z"/>
<path d="M4745 7708 c-89 -110 -203 -185 -332 -219 -79 -21 -103 -33 -103 -52
0 -5 8 -3 18 5 9 8 55 25 102 37 107 28 177 68 260 152 70 70 81 83 99 117 18
34 10 27 -44 -40z"/>
<path d="M5240 7666 c0 -2 7 -7 16 -10 8 -3 12 -2 9 4 -6 10 -25 14 -25 6z"/>
<path d="M4913 7650 c-88 -18 -172 -85 -209 -165 -80 -171 53 -366 260 -382
114 -9 233 59 286 163 33 65 35 170 3 229 -62 117 -207 183 -340 155z m139
-50 c119 -33 200 -177 156 -277 -45 -103 -125 -148 -256 -145 -86 3 -150 41
-186 110 -90 175 86 367 286 312z"/>
<path d="M4885 7571 c-65 -39 -115 -120 -115 -185 0 -41 27 -104 55 -129 34
-30 100 -58 146 -61 48 -4 114 23 158 65 96 90 46 267 -89 313 -60 21 -118 20
-155 -3z m85 -15 c0 -2 -11 -6 -25 -8 -14 -3 -25 -1 -25 3 0 5 11 9 25 9 14 0
25 -2 25 -4z"/>
<path d="M6082 7651 c2 -7 7 -12 11 -12 12 1 9 15 -3 20 -7 2 -11 -2 -8 -8z"/>
<path d="M5294 7631 c20 -22 26 -25 26 -13 0 4 -10 13 -22 21 -23 14 -23 14
-4 -8z"/>
<path d="M5348 7585 c63 -83 84 -119 97 -162 24 -77 19 -123 -30 -283 -9 -30
-25 -91 -35 -135 -10 -44 -19 -74 -19 -66 -1 8 -4 11 -7 8 -4 -4 -1 -13 5 -21
8 -10 9 -16 1 -21 -6 -4 -9 -23 -8 -43 l3 -37 -50 2 c-27 2 -56 6 -65 9 -8 4
-22 6 -32 5 -14 -2 -15 6 -11 58 6 59 5 61 -23 72 -53 21 -123 23 -145 4 -15
-14 -19 -15 -19 -4 0 8 -9 -1 -21 -20 -16 -26 -18 -36 -8 -42 7 -4 17 -5 21
-3 4 3 8 -2 8 -11 0 -19 25 -21 -283 20 -104 14 -255 30 -335 37 -81 6 -152
15 -158 19 -7 6 -6 31 3 86 26 150 30 183 23 183 -4 0 -13 -33 -20 -72 -7 -40
-18 -100 -24 -133 l-11 -60 -270 4 c-148 2 -271 5 -273 6 -2 2 6 47 17 101 26
122 27 169 5 160 -9 -3 -29 -6 -45 -6 -16 0 -37 -8 -47 -18 -17 -17 -39 -103
-57 -224 -5 -31 -11 -38 -41 -48 -19 -7 -38 -9 -41 -6 -4 3 1 43 10 88 17 84
15 112 -2 64 -6 -14 -17 -26 -25 -26 -16 0 -22 -20 -32 -108 -6 -54 -5 -62 9
-56 13 5 13 1 -1 -30 -9 -20 -20 -36 -24 -36 -4 0 -8 -8 -8 -19 0 -18 2 -18
73 2 64 18 101 21 327 21 245 1 319 -3 515 -25 176 -20 176 -26 -3 -23 -75 1
-127 0 -115 -3 12 -2 24 -10 27 -18 3 -9 0 -12 -8 -9 -8 3 -17 1 -20 -4 -3 -6
-16 -8 -29 -6 -20 4 -20 4 -2 -5 12 -5 25 -5 32 1 9 7 15 5 19 -6 3 -9 11 -13
16 -10 6 4 3 -4 -5 -17 -11 -16 -15 -43 -13 -81 2 -32 1 -58 0 -58 -2 0 -10
13 -18 29 -12 23 -20 27 -40 24 -29 -6 -25 -23 5 -23 11 0 17 -4 14 -10 -10
-17 -105 -4 -121 16 -14 19 -14 18 -30 -1 -14 -18 -14 -20 5 -23 12 -2 25 -18
34 -40 l15 -37 -32 -6 c-34 -6 -32 -7 -91 76 -70 99 -64 93 -65 62 0 -15 9
-35 20 -44 11 -10 20 -21 20 -26 0 -5 9 -22 21 -39 12 -16 20 -30 18 -32 -2
-1 -22 -7 -44 -13 -22 -5 -47 -13 -57 -17 -11 -5 -18 -2 -22 11 -9 27 -89 108
-94 94 -4 -13 67 -111 81 -111 5 0 6 -14 2 -31 -5 -22 -4 -29 4 -25 6 4 11 2
11 -3 0 -6 8 -11 18 -11 9 0 24 -4 31 -9 12 -8 11 -13 -10 -31 l-24 -21 45 5
c122 15 162 16 202 5 42 -10 85 -14 187 -17 29 -1 56 -8 65 -17 8 -8 19 -15
25 -15 16 0 14 -4 -18 -65 -58 -108 -64 -233 -21 -391 39 -145 167 -382 289
-535 25 -32 27 -30 -94 -95 -227 -121 -430 -245 -663 -407 -79 -54 -147 -95
-151 -91 -5 5 -33 41 -63 79 -141 180 -365 330 -573 385 -326 85 -674 -30
-926 -305 -69 -75 -129 -155 -129 -171 0 -8 -6 -14 -12 -14 -15 0 -134 -239
-173 -345 -33 -90 -91 -319 -107 -421 -7 -46 -12 -180 -12 -324 0 -257 12
-368 65 -570 54 -204 156 -442 248 -579 52 -77 71 -116 70 -143 -1 -13 3 -41
9 -63 32 -121 38 -139 49 -142 7 -3 5 12 -6 44 -23 59 -37 163 -22 163 5 0 12
-8 16 -19 8 -26 166 -176 248 -235 63 -46 72 -57 68 -80 -1 -5 4 -4 12 2 10 9
18 8 33 -6 10 -10 26 -16 34 -15 11 3 15 -5 13 -29 -2 -49 -2 -50 -12 -44 -4
3 -7 17 -5 32 2 23 1 24 -14 11 -9 -8 -24 -12 -32 -10 -9 2 -8 0 3 -7 15 -9
16 -14 6 -26 -10 -12 -10 -15 1 -12 8 2 14 -2 15 -9 0 -6 4 -15 8 -20 5 -4 7
-3 5 2 -2 6 7 20 20 33 13 13 21 30 18 37 -4 11 11 13 34 5 3 -1 8 -2 12 -1 5
0 7 -2 7 -7 -4 -22 4 -29 28 -28 14 0 27 -5 29 -12 1 -7 0 -8 -3 -2 -3 6 -11
7 -23 0 -13 -7 -21 -7 -25 0 -4 6 -11 8 -16 5 -5 -4 -6 2 -2 12 6 16 5 16 -10
4 -9 -7 -14 -18 -10 -25 5 -8 3 -8 -8 0 -11 9 -17 8 -28 -3 -12 -14 -12 -15 0
-11 8 3 20 -2 27 -11 8 -9 11 -11 8 -5 -3 6 1 11 8 11 7 0 13 -6 13 -13 0 -7
-4 -11 -9 -8 -4 3 -8 0 -8 -7 0 -7 -8 -6 -24 5 -16 10 -27 12 -31 6 -4 -6 -11
-8 -16 -5 -11 8 -6 -31 6 -42 4 -5 6 -3 2 2 -3 6 1 19 9 30 8 10 14 13 14 7 0
-7 7 -12 15 -12 22 0 18 -17 -7 -34 -12 -9 -19 -17 -15 -17 4 -1 10 -2 15 -3
14 -2 52 -33 47 -38 -3 -3 6 -13 20 -22 15 -10 24 -23 21 -31 -2 -7 2 -19 9
-25 8 -7 12 -17 8 -24 -13 -19 -12 -35 3 -47 8 -6 11 -16 7 -22 -3 -5 -2 -7 3
-4 11 6 39 -8 39 -20 2 -28 19 -54 31 -49 18 7 44 -3 44 -16 0 -6 -7 -5 -15 2
-9 7 -18 10 -21 7 -9 -9 57 -62 75 -62 9 0 15 5 14 12 -2 8 4 10 14 6 14 -6
14 -7 -1 -18 -16 -12 -16 -14 1 -30 18 -19 209 -145 219 -145 3 0 18 -8 32
-19 15 -10 54 -32 87 -49 53 -27 85 -41 185 -84 14 -6 32 -14 40 -19 8 -5 21
-11 28 -14 31 -12 48 -18 57 -20 6 0 18 -4 28 -8 43 -17 53 -20 63 -18 6 0 17
-5 23 -13 7 -8 18 -13 26 -10 7 3 16 0 20 -5 3 -6 11 -9 16 -5 6 3 18 -1 28
-10 10 -9 25 -14 35 -10 9 3 23 1 31 -6 8 -6 23 -9 35 -5 13 4 22 1 25 -8 4
-9 16 -12 35 -9 18 3 30 0 30 -7 0 -6 15 -11 33 -11 18 0 37 -4 42 -9 6 -5 65
-13 133 -17 67 -4 122 -11 122 -15 0 -11 493 -12 504 -2 3 4 28 8 54 10 73 4
146 14 162 21 8 3 20 6 25 7 64 9 112 19 120 24 6 3 12 6 15 7 3 0 28 4 55 9
28 4 55 11 60 15 6 4 26 11 45 15 19 4 42 11 52 16 10 5 26 13 36 18 10 5 32
12 50 15 17 4 84 34 148 67 65 32 122 58 128 57 13 -2 47 12 63 26 34 30 43
36 51 36 6 0 32 15 58 33 27 19 55 32 62 30 6 -3 12 0 12 6 0 6 6 11 14 11 8
0 16 7 20 15 3 8 12 15 20 15 8 0 24 12 35 26 11 14 25 23 30 20 5 -4 19 6 30
20 12 15 21 23 21 18 0 -5 7 2 16 14 8 12 21 21 28 20 6 -2 30 15 51 37 22 22
46 38 52 37 8 -2 10 3 7 13 -4 11 0 15 16 15 11 0 19 4 16 9 -6 10 20 35 47
45 11 3 21 15 24 25 3 11 15 22 27 25 12 3 39 22 59 43 92 93 167 176 167 182
0 4 14 20 30 36 17 16 30 35 30 42 0 7 7 13 15 13 8 0 15 6 15 14 0 7 7 19 15
26 20 16 20 34 0 22 -9 -4 -37 -28 -63 -53 -26 -24 -68 -62 -95 -83 -40 -32
-46 -34 -37 -14 6 13 27 34 46 47 19 13 67 56 107 95 62 61 76 80 95 137 31
94 29 98 -27 49 -60 -54 -82 -34 -57 52 8 29 29 75 46 101 37 59 37 71 1 108
-42 41 -57 37 -83 -23 -44 -103 -248 -488 -305 -578 -69 -107 -151 -222 -189
-265 l-35 -40 36 50 c196 273 318 493 321 576 l1 46 -26 -13 c-14 -8 -37 -14
-51 -14 -14 0 -29 -4 -35 -8 -5 -4 -41 -70 -78 -146 -108 -221 -307 -507 -438
-631 -61 -58 -48 -36 30 50 156 171 309 411 416 652 28 61 57 93 87 93 44 0
128 82 128 124 0 8 9 30 19 48 11 18 41 87 66 153 48 121 64 150 72 129 2 -6
15 -9 28 -6 18 3 24 0 22 -9 -2 -8 -2 -11 0 -6 3 4 9 7 15 7 16 0 68 -47 60
-54 -3 -4 0 -4 9 -1 20 8 44 -37 60 -111 20 -100 -1 -192 -89 -376 -2 -5 2 -8
7 -8 6 0 11 5 11 11 0 6 15 29 34 52 28 35 56 82 137 237 11 21 70 150 79 175
4 11 18 44 29 72 51 125 50 312 -1 386 -86 123 -193 179 -361 190 -44 3 -81 8
-83 10 -3 2 -1 85 3 183 5 99 6 253 3 344 -5 160 -5 155 -12 -140 -4 -168 -11
-325 -15 -350 -8 -45 -8 -45 -53 -48 -119 -7 -357 -68 -473 -122 -79 -35 -119
-50 -127 -45 -5 3 -10 1 -12 -4 -2 -8 -122 -73 -253 -139 -16 -8 -42 -23 -56
-33 -14 -10 -35 -16 -46 -13 -12 3 -24 1 -27 -4 -4 -6 3 -8 16 -5 13 3 0 -10
-30 -31 -53 -35 -79 -46 -67 -26 3 6 2 10 -4 10 -5 0 -13 -4 -16 -10 -3 -5 -1
-10 4 -10 20 0 11 -16 -16 -31 -14 -8 -35 -12 -47 -11 -16 3 -18 1 -8 -10 9
-11 5 -18 -18 -32 -20 -11 -30 -13 -30 -5 0 7 -7 8 -17 4 -10 -4 -23 -8 -30
-8 -6 0 -9 -6 -6 -14 5 -14 -13 -43 -28 -43 -5 0 -5 8 -2 17 5 13 2 15 -11 10
-10 -4 -20 -7 -22 -7 -3 0 -3 -4 1 -9 3 -5 -10 -22 -30 -37 -30 -23 -37 -25
-53 -13 -15 12 -15 11 1 -8 18 -21 18 -21 -2 -28 -12 -3 -21 -10 -21 -14 0 -4
-7 -8 -15 -8 -8 0 -15 4 -15 9 0 4 -5 8 -11 8 -6 0 -8 -8 -4 -19 6 -20 -18
-47 -34 -37 -5 4 -12 -3 -16 -14 -3 -11 -12 -19 -18 -17 -7 1 -11 -4 -9 -11 1
-7 -11 -26 -28 -42 -36 -35 -38 -30 -8 19 l23 36 -27 -17 c-20 -13 -28 -14
-32 -5 -3 6 -3 2 0 -10 3 -14 1 -23 -6 -23 -6 0 -9 -4 -6 -8 2 -4 0 -14 -6
-22 -8 -12 -9 -11 -4 5 5 17 3 16 -15 -5 -11 -14 -18 -18 -14 -10 4 8 0 6 -9
-4 -8 -10 -13 -23 -10 -27 3 -5 -1 -18 -9 -30 -8 -11 -18 -16 -21 -11 -3 6 1
12 9 16 9 3 13 14 11 28 -2 13 2 30 8 38 9 13 9 13 -5 3 -21 -17 -31 -5 -18
20 9 15 8 18 -2 12 -8 -6 -11 -4 -7 7 4 8 1 15 -7 15 -8 0 -11 -7 -7 -15 3
-10 1 -13 -7 -8 -6 4 -11 4 -10 -1 4 -15 -13 -43 -23 -37 -5 3 -4 12 4 22 10
12 10 14 1 8 -7 -4 -14 -2 -14 3 -3 26 -4 30 -11 37 -7 6 -6 -5 4 -46 4 -19
-24 -20 -30 -1 -3 9 0 11 9 5 11 -6 12 -5 2 8 -7 8 -10 17 -7 21 8 8 -18 3
-33 -6 -6 -4 -9 -16 -6 -27 3 -12 0 -20 -6 -20 -7 0 -9 5 -5 12 4 7 3 8 -4 4
-17 -10 -15 6 3 31 10 14 12 24 5 28 -6 4 -7 12 -3 18 12 20 12 37 0 34 -7 -1
-11 4 -9 11 1 8 -2 11 -8 7 -8 -5 -6 -13 5 -25 10 -11 12 -20 7 -24 -6 -3 -13
0 -16 6 -3 8 -5 7 -3 -2 1 -9 -2 -15 -8 -15 -5 0 -9 3 -8 7 5 13 -4 9 -17 -8
-11 -12 -11 -15 -1 -12 8 2 15 -5 16 -14 2 -10 -1 -18 -6 -18 -6 0 -7 -5 -3
-11 4 -8 9 -7 15 2 4 7 5 17 3 21 -3 4 2 8 10 8 13 0 14 -4 4 -25 -6 -14 -15
-25 -20 -25 -4 0 -8 -5 -8 -11 0 -5 5 -7 10 -4 6 3 10 -2 10 -12 -1 -16 -3
-15 -19 5 -11 12 -18 33 -17 47 2 13 -1 22 -5 19 -5 -3 -9 -14 -9 -24 0 -28
-17 -33 -33 -10 -15 21 -12 60 3 60 5 0 15 21 24 46 14 40 14 49 1 67 -13 19
-14 18 -8 -16 4 -30 0 -45 -21 -76 -15 -21 -36 -41 -48 -44 -11 -3 -17 -10
-14 -15 3 -5 -4 -12 -16 -15 -13 -4 -26 -1 -30 6 -6 9 -8 8 -8 -3 0 -9 5 -21
12 -28 6 -6 9 -14 6 -17 -3 -4 -12 8 -19 25 -9 19 -19 28 -28 25 -8 -3 -23 4
-33 15 -20 21 -43 26 -53 11 -3 -5 3 -12 14 -16 11 -3 25 -13 33 -22 9 -12 9
-15 1 -9 -9 5 -13 0 -13 -14 0 -14 4 -19 13 -14 6 4 9 4 5 -1 -4 -4 -3 -16 3
-27 8 -16 13 -17 25 -7 13 10 12 14 -2 30 -15 16 -15 20 -1 33 13 14 15 13 20
-4 4 -14 1 -17 -12 -12 -14 5 -14 4 -2 -11 7 -9 18 -14 24 -10 6 3 7 1 3 -5
-4 -7 -2 -13 3 -13 35 -4 45 -3 49 9 2 6 -1 12 -7 12 -6 0 -11 5 -11 11 0 5 5
7 10 4 6 -3 10 0 10 7 0 10 2 10 8 1 6 -9 11 -6 21 8 10 17 10 20 -1 14 -11
-7 -11 -5 0 6 11 12 14 12 22 -1 7 -11 3 -21 -16 -38 -15 -13 -24 -26 -20 -29
3 -4 6 -3 6 2 0 4 8 1 17 -6 15 -12 16 -12 11 3 -4 9 -1 24 6 33 12 16 13 16
19 2 3 -9 2 -19 -3 -22 -6 -4 -10 -11 -10 -17 0 -6 6 -5 16 2 8 8 14 9 13 4
-4 -20 2 -31 16 -31 18 0 18 -1 5 31 -7 20 -6 24 5 19 8 -3 12 -10 8 -16 -3
-6 -1 -7 5 -3 7 4 10 -1 9 -14 -1 -11 -5 -20 -9 -20 -4 0 -7 -3 -7 -7 1 -5 1
-15 0 -23 -1 -12 -4 -11 -12 3 -9 15 -13 16 -27 5 -15 -11 -15 -11 -5 2 7 9 8
21 4 29 -6 10 -10 8 -16 -6 -5 -10 -7 -22 -6 -28 1 -5 -3 -4 -10 2 -10 10 -17
9 -33 -5 -11 -9 -16 -12 -13 -5 4 6 3 14 -3 18 -5 3 -10 1 -10 -6 0 -7 -7 -4
-16 7 -11 13 -14 14 -11 3 3 -9 -1 -16 -8 -16 -8 0 -11 7 -7 15 4 11 2 13 -9
6 -18 -11 -39 -14 -36 -6 1 4 -2 7 -8 7 -5 0 -9 -4 -7 -8 1 -5 -2 -6 -8 -2 -7
4 -7 11 -2 18 10 13 -31 104 -45 100 -4 -2 -9 2 -9 7 -1 6 -2 15 -3 21 0 5 -6
7 -13 3 -6 -4 -8 -3 -4 4 3 6 2 13 -3 16 -5 4 -12 -2 -14 -11 -3 -10 -4 -4 -3
14 2 17 7 38 13 45 6 8 7 21 2 33 -7 17 -8 16 -8 -8 -1 -16 -5 -26 -10 -22
-16 9 -8 46 11 56 20 11 25 43 6 37 -7 -3 -13 -10 -13 -16 0 -16 -15 -27 -16
-11 -1 8 -1 18 0 22 1 5 -3 6 -9 2 -6 -4 -7 -13 -2 -23 5 -9 7 -23 6 -29 -1
-7 -2 -18 -3 -25 -2 -22 -15 3 -16 32 -1 16 -5 33 -9 37 -4 5 -6 1 -4 -7 1 -9
-1 -17 -7 -18 -5 -1 -10 7 -10 17 0 11 -3 23 -7 27 -4 3 -5 -3 -3 -15 3 -15 0
-21 -8 -18 -7 3 -11 11 -9 18 3 11 1 12 -9 2 -18 -18 -34 -16 -19 2 7 9 10 18
6 22 -3 3 -6 1 -6 -6 0 -7 -4 -10 -9 -6 -6 3 -8 -4 -6 -15 2 -12 -1 -20 -10
-20 -8 0 -12 8 -9 23 5 22 4 22 -6 -1 -11 -26 -35 -25 -35 1 0 8 -4 19 -8 23
-4 4 -1 14 5 23 7 9 8 13 4 9 -5 -4 -16 -2 -25 5 -14 10 -14 10 -4 -3 6 -8 12
-18 12 -22 1 -5 1 -9 2 -10 6 -20 3 -45 -7 -45 -7 0 -10 6 -7 14 3 7 0 13 -6
13 -17 0 -53 -39 -46 -50 4 -6 1 -10 -4 -10 -15 0 -14 -13 3 -36 12 -15 17
-16 27 -7 10 10 8 14 -11 21 -13 5 -19 12 -13 15 13 8 43 -14 46 -33 2 -8 6
-21 11 -29 6 -9 -1 -22 -20 -40 -15 -14 -22 -19 -16 -10 10 13 7 20 -13 39
-23 21 -35 17 -17 -6 4 -5 0 -3 -8 6 -19 18 -40 24 -40 10 0 -5 -6 -7 -13 -4
-8 3 -20 -11 -31 -36 -10 -23 -21 -39 -24 -35 -3 3 0 11 6 17 7 7 12 26 12 44
0 20 6 34 16 38 8 3 12 2 9 -4 -3 -6 1 -10 9 -10 19 0 30 18 32 50 0 14 4 33
9 43 6 14 3 16 -11 11 -15 -5 -16 -4 -5 4 8 6 16 23 18 39 1 15 4 37 7 48 2
11 5 22 5 25 1 3 5 -1 10 -9 10 -16 3 -75 -10 -79 -5 -2 -9 -8 -9 -13 0 -6 5
-7 11 -3 6 3 4 -8 -5 -24 -21 -40 -20 -56 1 -18 8 16 17 43 20 60 6 37 13 47
13 18 0 -27 18 -38 27 -16 4 10 2 19 -5 22 -7 2 -10 8 -6 13 3 5 1 8 -4 7 -6
-2 -10 2 -10 7 0 6 4 9 10 7 5 -1 7 2 3 8 -3 5 -3 16 2 23 10 16 13 38 4 33
-14 -9 -10 127 5 157 9 16 11 26 6 23 -15 -9 -25 45 -11 58 9 8 10 8 6 0 -4
-7 -1 -14 7 -17 14 -6 16 16 3 29 -4 4 -1 14 6 22 13 16 19 74 6 67 -4 -3 -6
-16 -5 -30 2 -13 -1 -22 -5 -19 -12 7 -11 40 1 62 18 30 28 202 25 417 -2 215
-15 328 -55 485 -11 41 -22 86 -26 100 -13 54 -58 187 -76 230 -42 96 -119
244 -155 297 l-37 56 33 28 c123 102 560 377 769 482 l123 62 22 -30 c59 -80
278 -302 408 -413 235 -202 545 -407 789 -523 259 -123 426 -176 649 -207 60
-8 60 -8 81 -112 8 -37 8 -31 4 33 l-5 77 59 0 c126 0 241 38 319 105 86 74
126 213 98 345 -8 40 -17 75 -20 79 -2 4 -7 23 -10 42 -8 50 -41 129 -113 269
-74 144 -204 348 -210 330 -3 -7 0 -15 5 -19 22 -13 113 -226 113 -264 0 -16
-29 9 -68 59 -63 80 -197 214 -214 214 -10 0 -18 -14 -22 -42 -8 -48 -4 -55
135 -245 47 -65 98 -139 113 -165 24 -42 26 -50 14 -67 -90 -129 -344 -140
-643 -29 -107 40 -226 99 -233 117 -5 13 15 138 39 248 21 98 6 131 -90 192
-51 32 -74 41 -101 39 -32 -3 -41 -12 -122 -128 -48 -69 -93 -124 -100 -122
-6 2 -39 24 -71 50 -333 264 -578 590 -627 837 -9 44 1 65 31 65 13 0 19 -7
19 -23 0 -29 29 -129 40 -141 5 -5 18 -9 30 -10 13 -1 28 -13 38 -31 9 -16 36
-62 59 -101 24 -40 43 -74 43 -78 0 -3 -9 -6 -20 -6 -11 0 -20 -6 -20 -12 0
-38 367 -419 442 -459 13 -7 35 13 115 108 54 64 105 120 113 126 11 7 31 -1
75 -30 83 -55 145 -87 240 -123 48 -18 6 13 -53 40 -30 13 -25 46 6 43 27 -3
29 13 2 20 -23 6 -26 25 -6 52 13 18 15 18 50 1 44 -21 59 -16 18 5 -15 8 -33
20 -40 27 -7 6 -18 12 -23 12 -13 0 -11 32 4 52 9 11 22 15 42 11 25 -3 27 -2
13 7 -21 13 -22 34 -6 94 12 44 11 44 -31 95 -26 30 -41 57 -37 66 6 17 22 20
31 5 3 -5 22 -10 41 -10 27 0 34 4 34 19 0 11 -4 23 -10 26 -5 3 -10 -1 -10
-9 0 -18 -23 -21 -51 -6 -16 9 -19 22 -19 72 l0 60 25 -16 c14 -10 47 -28 72
-41 25 -14 65 -41 89 -61 24 -19 44 -31 44 -27 0 11 -63 73 -74 73 -14 0 -76
52 -76 65 0 7 -11 15 -23 19 -13 3 -35 16 -48 29 -13 13 -32 26 -41 30 -10 3
-18 13 -18 21 0 7 -10 16 -23 20 -13 3 -40 21 -62 39 l-39 34 60 -1 c32 -1 76
3 96 7 30 6 37 5 41 -10 3 -13 7 -8 12 15 4 18 14 32 22 32 9 0 13 6 10 14 -3
8 2 16 14 19 10 3 19 1 19 -5 0 -5 5 -6 11 -3 11 7 -58 64 -78 65 -6 0 -15 5
-19 12 -5 8 0 9 17 4 13 -4 29 -8 34 -10 6 -1 27 -8 49 -15 47 -16 64 0 40 36
-14 23 -14 23 27 23 32 0 40 3 36 15 -4 8 4 22 17 32 20 17 21 20 8 33 -12 11
-12 15 -3 18 8 3 16 0 20 -5 6 -10 38 -10 47 0 5 5 -137 77 -153 77 -6 0 -15
5 -19 12 -19 30 160 -36 261 -97 31 -19 61 -32 66 -29 5 3 9 24 9 48 0 24 6
56 14 72 8 16 17 79 21 145 l7 116 -30 34 c-17 19 -57 49 -90 67 -49 26 -62
30 -71 18 -6 -7 -19 -67 -28 -132 -9 -65 -18 -120 -18 -122 -1 -1 -19 5 -39
13 -27 11 -36 20 -32 33 21 75 40 233 29 248 -13 17 -76 45 -84 37 -12 -14
-39 -156 -40 -210 -2 -59 -11 -64 -79 -39 -26 10 -34 18 -32 32 2 11 10 53 17
94 21 116 19 157 -8 175 -31 20 -83 30 -91 17 -9 -14 -36 -174 -38 -223 -1
-22 -5 -42 -8 -44 -4 -3 -31 2 -59 11 -48 14 -65 34 -41 49 6 4 8 15 5 25 -3
10 -2 21 3 24 6 3 10 50 11 105 l2 99 -33 10 c-55 17 -199 51 -271 63 -37 6
-69 15 -72 19 -3 4 5 43 16 86 24 91 28 181 10 244 -14 53 -76 146 -111 169
l-25 16 23 -30z m-328 -645 c0 -5 -4 -10 -10 -10 -5 0 -10 5 -10 10 0 6 5 10
10 10 6 0 10 -4 10 -10z m-766 -198 c3 -5 -1 -9 -9 -9 -8 0 -12 4 -9 9 3 4 7
8 9 8 2 0 6 -4 9 -8z m-14 -52 c0 -5 -7 -7 -15 -4 -8 4 -15 8 -15 10 0 2 7 4
15 4 8 0 15 -4 15 -10z m112 -54 c12 7 17 -11 7 -26 -5 -10 -9 -11 -9 -3 0 17
-79 11 -89 -6 -6 -9 -10 -6 -14 10 -9 33 -3 37 50 29 26 -4 51 -6 55 -4z m98
-20 c0 -2 -7 -6 -15 -10 -8 -3 -15 -1 -15 4 0 6 7 10 15 10 8 0 15 -2 15 -4z
m-347 -50 c16 -13 24 -46 10 -46 -12 0 -43 33 -43 47 0 16 10 16 33 -1z m87
-17 c0 -11 -30 -12 -48 0 -9 5 -3 8 17 9 17 0 31 -4 31 -9z m42 -14 c3 -15 1
-25 -6 -25 -6 0 -13 11 -14 25 -1 14 2 25 7 25 5 0 11 -11 13 -25z m1653 -5
c3 -6 -1 -7 -9 -4 -18 7 -21 14 -7 14 6 0 13 -4 16 -10z m232 -66 c-3 -3 -12
-4 -19 -1 -8 3 -5 6 6 6 11 1 17 -2 13 -5z m117 -165 c-8 -14 -24 -10 -24 6 0
9 6 12 15 9 8 -4 12 -10 9 -15z m-1224 -122 c8 -3 24 -7 35 -9 11 -2 23 -7 27
-13 5 -6 8 -4 8 5 0 11 2 12 8 3 4 -7 23 -14 42 -18 31 -5 104 -32 152 -56 10
-5 20 -5 23 2 5 7 14 5 29 -4 12 -9 34 -13 49 -10 20 4 27 1 27 -10 0 -14 5
-14 45 3 53 23 60 13 11 -14 -44 -24 -72 -63 -83 -117 -8 -41 -11 -44 -38 -41
-38 4 -44 11 -23 26 9 7 19 28 23 48 7 38 -10 63 -58 85 -89 41 -150 65 -202
79 -33 9 -64 20 -69 25 -6 5 -18 9 -27 9 -10 0 -21 5 -24 10 -6 10 16 9 45 -3z
m570 -91 c0 -2 -7 -6 -15 -10 -8 -3 -15 -1 -15 4 0 6 7 10 15 10 8 0 15 -2 15
-4z m280 -81 c11 -13 10 -14 -4 -9 -9 3 -16 10 -16 15 0 13 6 11 20 -6z m-343
-411 c24 -26 25 -54 1 -54 -12 0 -68 62 -68 74 0 17 46 2 67 -20z m-2596 -899
c65 -26 177 -99 234 -152 86 -81 190 -223 247 -338 38 -76 110 -299 123 -381
6 -38 4 -42 -22 -52 -15 -7 -98 -26 -183 -43 -189 -38 -195 -40 -220 -81 -18
-29 -20 -43 -15 -118 9 -126 27 -139 221 -165 145 -20 193 -29 214 -42 14 -8
17 -12 8 -9 -12 3 -15 1 -11 -9 3 -8 8 -13 12 -11 3 2 4 -19 2 -47 -2 -29 -6
-46 -8 -39 -3 6 -8 12 -12 12 -9 0 -6 -43 3 -58 3 -5 -1 -18 -9 -28 -13 -18
-14 -18 -9 6 2 14 -2 7 -11 -14 -8 -22 -13 -42 -10 -44 3 -3 5 1 5 8 0 11 3
11 12 2 10 -10 10 -15 0 -21 -8 -5 -13 -11 -13 -15 1 -3 1 -14 0 -23 0 -16 -1
-16 -8 1 -6 16 -9 17 -17 5 -5 -8 -9 -17 -10 -21 -1 -5 -3 -10 -4 -13 -6 -12
-6 -31 1 -45 4 -9 1 -24 -7 -35 -12 -15 -14 -16 -14 -3 0 9 6 19 13 21 9 4 9
6 -1 6 -7 1 -15 -6 -18 -14 -4 -8 -11 -12 -18 -8 -6 4 -5 -1 3 -10 12 -15 11
-17 -3 -17 -9 0 -15 -3 -15 -7 4 -22 -2 -33 -13 -27 -8 5 -7 0 2 -11 14 -17
13 -18 -2 -13 -10 4 -19 1 -22 -8 -3 -9 -1 -12 4 -9 6 3 10 -1 10 -9 0 -20
-30 -56 -47 -56 -7 0 -10 -7 -6 -16 4 -10 -1 -17 -16 -21 -11 -3 -21 -10 -21
-15 0 -16 -52 -78 -60 -73 -5 3 -10 0 -12 -7 -3 -8 -6 -6 -10 4 -4 10 2 23 14
35 12 10 18 13 15 6 -4 -6 -3 -14 2 -18 6 -3 8 4 6 16 -3 16 0 19 12 15 14 -6
14 -4 2 11 -12 15 -12 16 6 9 11 -4 16 -4 12 0 -4 4 1 16 10 27 10 11 13 17 6
14 -6 -4 -14 -3 -18 2 -3 5 -14 9 -25 8 -10 -1 -17 -5 -14 -9 3 -4 10 -5 18
-2 7 3 13 -2 13 -11 0 -9 -6 -14 -14 -11 -8 3 -13 -2 -13 -14 0 -13 -5 -17
-15 -14 -8 3 -13 9 -12 12 2 8 -7 12 -25 12 -9 0 -9 -3 1 -9 8 -5 16 -19 18
-32 3 -19 1 -20 -14 -8 -11 9 -14 10 -9 2 4 -7 3 -13 -2 -13 -17 0 -22 13 -9
29 11 14 10 15 -7 1 -17 -14 -17 -15 3 -31 11 -9 17 -20 13 -24 -4 -5 -1 -5 6
-1 6 4 12 2 12 -3 0 -6 -6 -11 -12 -11 -10 0 -10 -2 0 -9 10 -6 9 -10 -7 -14
-17 -4 -20 -1 -17 17 2 12 -5 32 -17 46 -11 14 -18 18 -14 9 3 -9 0 -23 -6
-30 -10 -11 -9 -11 5 -1 10 8 18 9 22 3 4 -5 2 -12 -4 -16 -7 -4 -7 -13 0 -26
6 -11 8 -25 4 -32 -5 -8 -2 -7 9 2 10 8 17 9 17 3 0 -20 -21 -24 -39 -8 -10 9
-21 13 -26 9 -4 -5 -5 -3 -1 4 3 6 2 14 -3 18 -6 3 -8 13 -5 23 5 14 4 15 -5
2 -12 -16 -13 -14 -15 29 -2 47 -12 44 -12 -4 0 -24 4 -41 8 -39 13 8 20 -17
8 -32 -10 -11 -16 -12 -26 -3 -8 6 -15 9 -15 5 -1 -3 -3 -10 -4 -16 -1 -5 -3
-13 -4 -17 -1 -5 -5 -1 -11 7 -6 9 -5 19 2 28 9 10 8 12 -3 10 -10 -2 -14 6
-14 27 0 17 2 34 4 40 3 5 6 23 7 40 1 16 0 24 -3 17 -3 -6 -10 -9 -16 -5 -9
5 -9 3 0 -8 16 -19 14 -31 -5 -53 -10 -11 -11 -16 -3 -11 10 6 12 2 6 -14 -3
-11 -3 -26 2 -33 4 -7 9 -22 10 -33 3 -15 1 -17 -9 -7 -6 6 -13 20 -15 29 -6
31 -8 38 -16 49 -4 7 0 17 8 24 8 7 15 18 15 24 0 6 -5 3 -11 -7 -9 -15 -13
-16 -27 -5 -15 12 -16 11 -3 -4 7 -10 10 -18 7 -18 -4 0 -4 -6 1 -12 4 -7 8
-17 9 -23 1 -5 3 -14 5 -20 2 -5 0 -11 -6 -12 -5 -2 -11 2 -11 7 -1 6 -3 13
-4 18 -1 4 -2 11 -1 15 1 5 -3 6 -9 2 -6 -3 -7 -12 -3 -18 11 -18 14 -49 4
-43 -16 11 -22 57 -9 74 9 12 6 11 -10 -2 -23 -20 -31 -10 -9 13 9 11 9 12 0
7 -7 -4 -18 -17 -24 -29 -7 -12 -8 -19 -4 -15 5 4 14 3 22 -3 15 -13 18 -33 3
-24 -5 3 -10 0 -11 -7 0 -10 -2 -10 -6 1 -4 10 -7 11 -13 1 -5 -8 0 -21 11
-33 19 -21 19 -21 -6 -47 -14 -15 -22 -29 -18 -33 3 -4 1 -7 -5 -7 -15 0 -16
17 -1 26 8 4 7 9 -2 16 -11 7 -9 8 5 4 15 -5 17 -3 10 11 -4 10 -8 32 -8 50
-1 17 -5 35 -10 40 -5 4 -6 3 -3 -3 4 -7 0 -17 -8 -24 -9 -8 -13 -22 -10 -39
4 -19 0 -15 -14 14 -45 93 -62 138 -56 153 3 9 3 13 -1 9 -4 -4 -20 15 -36 43
-32 56 -52 70 -103 70 -22 0 -34 4 -30 10 3 6 -4 10 -17 10 -16 0 -19 -3 -10
-9 11 -7 11 -9 -2 -14 -8 -3 -23 1 -32 10 -16 16 -16 16 -10 -5 5 -16 3 -24
-9 -28 -9 -4 -14 -12 -11 -19 2 -6 0 -18 -4 -26 -5 -7 -5 -18 1 -25 5 -6 14
-49 20 -95 5 -46 14 -102 19 -124 15 -63 13 -95 -5 -89 -8 4 -15 1 -15 -5 0
-6 7 -11 16 -11 8 0 13 -4 9 -9 -8 -14 -129 43 -200 94 -71 50 -168 148 -230
231 -95 126 -197 364 -226 528 -15 81 -14 83 90 117 95 31 96 31 93 150 -3
134 -11 149 -100 178 -107 35 -114 42 -107 109 24 214 120 464 239 623 31 41
58 78 60 84 3 5 14 -2 26 -17 45 -59 117 -17 155 88 9 27 21 59 26 72 9 23 46
43 104 58 l28 7 -6 -44 c-23 -153 -36 -346 -26 -376 11 -33 11 -33 78 -33 94
0 101 10 166 218 29 92 62 187 74 211 21 40 24 42 54 36 18 -4 57 -17 88 -30z
m1106 -1905 c1 -11 -2 -18 -7 -15 -4 3 -11 -1 -13 -7 -3 -7 -6 -1 -6 15 -1 31
24 38 26 7z m1 -79 c-7 -9 -13 -17 -14 -19 0 -1 -1 12 -2 29 -1 25 2 28 14 18
11 -9 12 -15 2 -28z m2317 -118 c-3 -27 -15 -82 -25 -123 -10 -41 -24 -105
-31 -142 -7 -38 -16 -68 -20 -68 -4 0 -6 -8 -4 -17 2 -10 4 -21 4 -25 1 -4 13
-14 29 -22 27 -15 27 -15 -26 -16 -83 0 -111 -28 -187 -185 -50 -104 -185
-324 -243 -396 -39 -49 -176 -200 -208 -229 -67 -61 -27 -13 144 174 101 110
292 414 292 465 0 9 7 29 15 45 16 29 20 56 9 56 -10 0 -146 -75 -208 -115
-79 -50 -188 -143 -273 -233 -74 -77 -103 -90 -38 -18 34 39 46 64 23 50 -7
-4 -8 -3 -4 5 4 6 2 18 -4 26 -9 11 -9 15 -1 15 6 0 11 -3 11 -7 0 -5 4 -14 9
-22 7 -12 16 -8 43 17 18 17 60 56 93 86 33 30 57 57 54 61 -4 3 -20 -8 -37
-24 l-32 -29 -25 24 c-14 13 -29 24 -33 24 -4 0 -7 7 -7 14 0 8 -3 17 -7 21
-9 10 -20 -33 -12 -47 4 -7 4 -10 -1 -6 -4 4 -14 0 -22 -10 -13 -15 -13 -15
-4 5 16 33 12 51 -5 23 -15 -25 -15 -25 -8 -1 4 16 3 21 -5 17 -6 -4 -11 -13
-11 -21 0 -19 -17 -28 -26 -14 -4 7 -3 9 4 5 14 -8 20 22 11 56 -4 15 -4 30 1
33 4 3 6 14 3 25 -3 12 0 20 6 20 7 0 9 -5 5 -12 -4 -6 -3 -8 4 -4 6 3 14 1
19 -6 11 -19 12 -38 2 -38 -6 0 -7 -5 -3 -11 4 -8 9 -7 15 2 5 8 9 9 9 3 0 -6
8 -11 18 -11 36 0 43 -4 52 -25 9 -23 9 -23 10 2 1 23 2 23 9 5 5 -11 4 -23
-2 -26 -5 -4 -6 -13 -2 -20 11 -17 27 24 19 49 -5 14 -4 15 5 2 9 -13 11 -13
11 3 0 9 -5 17 -11 17 -5 0 -8 4 -4 9 3 5 1 12 -5 16 -6 4 -7 11 -4 17 5 7 2
8 -5 3 -9 -5 -10 -10 -2 -18 12 -12 -3 -37 -21 -37 -6 0 -6 6 1 14 9 10 9 16
1 21 -8 5 -8 11 -1 19 8 9 7 13 -3 13 -14 0 -16 -21 -3 -33 8 -9 -1 -24 -14
-24 -6 0 -7 5 -3 12 4 7 3 8 -5 4 -8 -5 -10 0 -7 18 3 19 1 23 -11 19 -12 -5
-14 -3 -8 6 6 10 3 11 -14 2 -11 -7 -21 -9 -21 -6 0 15 3 20 12 17 5 -1 7 2 4
7 -4 5 -2 12 4 16 5 3 10 0 10 -7 0 -9 3 -9 10 2 8 13 10 12 10 -2 0 -13 6
-17 23 -14 12 2 27 -1 34 -6 7 -6 14 -5 18 2 4 6 1 9 -7 8 -8 -2 -12 5 -10 19
2 12 -1 24 -6 27 -5 3 -8 -5 -8 -17 1 -22 -23 -31 -36 -13 -12 17 3 28 20 14
13 -11 14 -11 7 2 -6 8 -10 18 -10 22 0 3 -4 10 -9 15 -5 4 -6 3 -3 -3 4 -6
-2 -19 -13 -29 -15 -14 -20 -15 -20 -4 0 7 -7 3 -16 -10 -13 -18 -18 -20 -25
-10 -7 11 -9 11 -9 1 0 -7 -5 -10 -10 -7 -8 5 -8 11 0 20 7 9 6 16 -7 26 -16
12 -17 12 -6 -2 7 -9 9 -19 5 -23 -4 -4 -8 -12 -8 -17 -3 -22 -5 -23 -14 -9
-6 10 -10 11 -10 3 0 -7 -5 -13 -12 -13 -6 0 -2 10 10 23 16 17 18 26 11 37
-9 12 -10 11 -5 -4 6 -16 4 -17 -9 -6 -13 10 -15 9 -15 -9 0 -12 -7 -24 -15
-27 -8 -4 -15 -10 -15 -16 0 -5 4 -7 9 -4 5 3 11 -1 14 -9 4 -10 1 -12 -11 -8
-26 10 -31 23 -18 47 13 25 63 76 78 79 13 2 98 82 98 92 0 3 -4 3 -10 0 -5
-3 -10 -1 -10 4 0 6 7 11 15 11 16 0 38 -34 27 -44 -3 -4 1 -4 10 -1 11 4 15
17 13 40 -1 25 2 32 12 28 8 -3 23 3 33 12 11 10 20 15 20 11 0 -4 5 -4 10 -1
8 5 7 12 -2 23 -10 14 -10 15 2 5 18 -17 30 -16 30 1 0 7 9 25 20 39 17 22 26
25 52 20 25 -5 30 -3 26 9 -3 8 1 19 10 25 42 25 116 64 148 78 32 13 35 13
30 -1 -3 -8 -2 -12 4 -9 6 3 10 12 10 18 0 7 18 20 40 29 22 9 40 12 40 7 0
-5 8 -2 18 6 9 8 20 15 24 16 4 0 21 4 38 9 19 5 28 5 25 -1 -4 -5 -2 -9 3 -9
6 0 12 7 16 15 3 8 11 15 17 15 8 0 9 -15 4 -47z m-1095 19 c0 -4 -9 -13 -20
-20 -19 -12 -20 -11 -8 8 13 20 28 27 28 12z m-1202 -24 c-3 -14 88 -21 111
-8 18 10 64 -17 55 -32 -4 -6 -10 -5 -15 3 -7 10 -8 9 -6 -6 1 -11 6 -25 10
-31 9 -15 -13 -32 -35 -29 -20 4 -21 0 -8 -30 8 -18 9 -19 9 -1 1 12 6 16 16
12 8 -3 15 0 15 7 0 9 2 9 8 0 4 -7 13 -9 21 -4 11 7 10 11 -5 21 -18 11 -18
11 1 6 18 -6 17 -4 -3 12 l-23 18 20 19 c23 19 29 8 9 -14 -9 -10 -9 -12 -1
-7 6 3 14 2 18 -4 4 -6 10 -8 15 -5 5 3 12 0 16 -6 5 -8 1 -10 -13 -7 -16 4
-20 1 -18 -11 2 -9 4 -18 4 -21 1 -3 5 1 10 9 6 9 9 5 9 -13 0 -15 -4 -29 -9
-32 -5 -3 -9 -13 -9 -22 1 -16 2 -16 14 1 15 20 27 22 24 5 -2 -7 3 -12 10
-11 6 2 12 -3 12 -11 0 -8 -6 -18 -12 -22 -7 -4 -10 -4 -6 1 4 4 3 14 -3 22
-9 10 -15 10 -25 2 -8 -6 -14 -8 -14 -4 0 4 -7 2 -16 -5 -8 -8 -14 -9 -13 -4
1 5 1 23 0 39 -1 21 -4 26 -10 16 -5 -7 -7 -23 -5 -35 4 -20 4 -20 -5 -1 -8
17 -10 17 -10 3 -1 -22 -17 -32 -27 -17 -4 8 -3 9 4 5 7 -4 12 -1 12 8 0 23
-19 30 -27 9 -6 -15 -9 -13 -19 12 -7 17 -13 24 -14 16 0 -16 -50 46 -50 62 0
12 -40 62 -48 61 -11 -3 -2 20 11 28 16 10 17 10 15 -4z m-970 -50 c4 2 7 -1
9 -7 1 -8 0 -8 -4 -1 -3 7 -10 5 -17 -6 -17 -22 -36 -10 -34 21 2 23 3 23 21
7 11 -9 22 -16 25 -14z m2112 28 c0 -2 -8 -10 -17 -17 -16 -13 -17 -12 -4 4
13 16 21 21 21 13z m-2265 -34 c2 -26 -7 -28 -25 -7 -9 11 -9 15 -1 15 7 0 9
5 5 11 -4 7 -1 10 6 7 8 -2 14 -14 15 -26z m59 -7 c-3 -7 0 -16 7 -21 8 -4 10
-3 5 4 -14 22 5 34 25 16 10 -9 16 -21 13 -26 -3 -5 -13 -1 -21 9 -8 10 -12
13 -9 7 3 -7 -2 -18 -11 -25 -9 -8 -14 -9 -10 -3 4 7 0 14 -8 18 -9 3 -12 12
-8 23 3 10 3 15 -1 12 -4 -4 -9 -19 -12 -35 -3 -23 -2 -26 7 -14 9 13 10 13 6
0 -2 -8 -14 -16 -26 -16 -27 -2 -53 -23 -30 -25 7 -1 17 -1 20 -1 3 1 6 -6 6
-14 0 -10 -4 -11 -11 -4 -5 5 -18 10 -29 10 -25 0 -18 34 8 38 11 2 24 8 29
12 5 5 -2 7 -15 4 l-24 -5 23 11 c14 6 20 15 16 21 -10 18 26 41 42 28 7 -6
11 -16 8 -24z m7 -72 c12 -15 12 -16 -2 -11 -9 4 -22 1 -29 -5 -8 -8 -8 -5 1
11 16 26 13 26 30 5z m1103 -33 c-6 -6 -10 -3 -10 10 0 13 4 16 10 10 7 -7 7
-13 0 -20z m621 -10 c-3 -5 0 -18 7 -29 9 -14 16 -17 24 -10 9 7 16 4 24 -11
6 -12 9 -24 6 -28 -3 -3 -6 1 -6 9 0 12 -2 11 -11 -1 -8 -12 -9 -9 -4 10 5 21
4 22 -5 7 -12 -19 -4 -41 12 -31 6 4 8 1 6 -7 -3 -8 -11 -13 -17 -11 -7 1 -10
-2 -7 -7 4 -5 16 -8 29 -6 19 4 20 3 6 -8 -9 -7 -16 -16 -17 -22 -1 -16 -18
-17 -32 0 -8 10 -9 15 -1 15 6 0 11 -4 11 -10 0 -5 5 -10 10 -10 7 0 7 7 0 20
-6 11 -15 18 -19 16 -4 -3 -8 1 -8 9 0 8 5 11 10 8 6 -4 8 1 4 11 -4 10 -7 23
-7 29 0 7 -4 6 -10 -3 -9 -13 -10 -13 -11 0 0 10 -3 8 -9 -5 -11 -26 -12 -37
-2 -31 4 2 8 -11 9 -31 0 -24 -2 -31 -8 -22 -8 13 -13 6 -10 -13 0 -4 -7 -4
-16 -1 -10 4 -14 2 -9 -5 3 -6 2 -13 -3 -16 -4 -3 -8 2 -8 12 0 36 -3 43 -15
36 -10 -6 -10 -5 -1 8 7 8 10 18 6 21 -3 4 -1 7 6 7 7 0 11 -6 8 -13 -3 -8 4
-13 19 -13 13 0 24 4 24 9 0 5 -7 6 -15 3 -11 -4 -15 0 -13 12 2 12 -3 16 -17
15 -11 -1 -14 0 -7 3 6 3 10 10 6 15 -7 12 19 7 29 -6 5 -6 7 0 4 12 -3 13 -1
26 4 29 6 3 9 13 8 22 -2 27 0 34 11 27 6 -4 8 -10 5 -15z m-758 -15 c0 -8 -4
-12 -9 -9 -5 3 -6 10 -3 15 9 13 12 11 12 -6z m847 -17 c-12 -15 -13 -18 -3
-10 13 10 19 10 28 -1 11 -14 6 -27 -11 -27 -5 0 -6 5 -2 12 4 7 3 8 -4 4 -18
-11 -14 -26 6 -27 14 -1 14 -2 1 -6 -10 -2 -14 -14 -13 -33 1 -17 -2 -28 -6
-25 -4 3 -6 15 -2 27 4 17 2 20 -12 15 -14 -6 -15 -3 -6 13 6 11 8 25 5 31 -8
11 24 64 32 55 4 -3 -2 -16 -13 -28z m1016 22 c0 -5 -5 -10 -11 -10 -5 0 -7 5
-4 10 3 6 8 10 11 10 2 0 4 -4 4 -10z m-1152 -35 c-3 -3 -9 2 -12 12 -6 14 -5
15 5 6 7 -7 10 -15 7 -18z m1090 -9 c-10 -7 -15 -16 -11 -20 4 -4 -1 -4 -11 0
-18 7 -18 8 0 21 23 17 45 17 22 -1z m-1918 -11 c7 -9 15 -13 18 -11 2 3 11
-2 19 -10 26 -26 10 -23 -37 7 -25 16 -38 29 -29 29 9 0 22 -7 29 -15z m411
-12 c13 -16 12 -17 -3 -4 -17 13 -22 21 -14 21 2 0 10 -8 17 -17z m105 -3 c0
-12 -4 -16 -9 -11 -5 5 -6 14 -3 20 10 15 12 14 12 -9z m-336 -4 c0 -2 -7 -7
-16 -10 -8 -3 -12 -2 -9 4 6 10 25 14 25 6z m1 -92 c8 -8 22 -14 30 -14 8 0
30 -14 49 -31 l35 -31 -70 37 c-89 47 -165 96 -165 106 0 9 95 -44 121 -67z
m96 46 c-2 -23 -10 -17 -12 10 -1 10 2 17 6 14 4 -2 7 -13 6 -24z m1591 5 c-3
-3 -9 2 -12 12 -6 14 -5 15 5 6 7 -7 10 -15 7 -18z m-1828 -37 c0 -4 3 -7 8
-6 11 4 97 -50 118 -74 12 -13 -3 -7 -41 18 -92 60 -98 63 -122 74 -13 5 -23
14 -23 20 0 7 13 4 30 -7 17 -9 30 -21 30 -25z m720 28 c0 -2 -8 -10 -17 -17
-16 -13 -17 -12 -4 4 13 16 21 21 21 13z m-550 -21 c11 -13 10 -14 -4 -9 -9 3
-16 10 -16 15 0 13 6 11 20 -6z m688 -30 c-3 -3 -9 2 -12 12 -6 14 -5 15 5 6
7 -7 10 -15 7 -18z m-38 -10 c0 -2 -6 -8 -13 -14 -10 -8 -14 -7 -14 2 0 8 6
14 14 14 7 0 13 -1 13 -2z m-635 -73 c-3 -3 -11 0 -18 7 -9 10 -8 11 6 5 10
-3 15 -9 12 -12z m125 -2 c19 -10 45 -23 57 -29 22 -10 40 -31 26 -31 -4 1
-26 12 -48 25 -22 14 -50 29 -62 35 -22 9 -31 21 -15 20 4 -1 23 -9 42 -20z
m5 -67 c35 -20 63 -39 60 -41 -6 -6 -85 34 -115 58 -39 31 -15 23 55 -17z
m1321 -19 c24 -13 26 -13 21 5 -3 11 1 22 9 25 17 7 39 -30 24 -39 -6 -4 -8
-16 -5 -28 2 -12 2 -16 -1 -9 -3 6 -10 9 -16 6 -5 -3 -2 -15 9 -27 10 -11 13
-17 6 -14 -14 9 -20 0 -27 -37 -3 -16 -8 -31 -12 -35 -3 -3 -4 3 -2 14 1 11
-2 19 -8 18 -8 -2 -10 6 -6 20 6 19 7 20 10 3 4 -16 5 -16 16 5 7 13 10 29 7
34 -3 6 -6 16 -8 24 -2 19 -23 30 -41 23 -10 -3 -13 -1 -8 6 3 6 1 14 -5 18
-7 4 -9 3 -5 -4 3 -6 2 -13 -4 -17 -5 -3 -10 -14 -9 -23 0 -14 2 -13 9 3 8 19
9 19 9 1 1 -19 1 -19 14 -1 10 12 16 14 21 7 11 -19 -1 -29 -31 -27 -26 1 -28
4 -26 41 1 35 1 37 -10 17 -8 -15 -17 -19 -25 -14 -10 6 -7 13 15 29 25 19 29
19 40 5 7 -8 24 -22 39 -29z m-1114 -26 c20 -10 41 -18 45 -18 4 0 19 -10 33
-21 25 -20 25 -20 -15 1 -22 11 -43 20 -47 20 -20 0 -97 43 -102 57 -5 13 -2
12 21 -3 16 -10 45 -26 65 -36z m38 38 c0 -3 -4 -8 -10 -11 -5 -3 -10 -1 -10
4 0 6 5 11 10 11 6 0 10 -2 10 -4z m1215 -4 c6 -4 11 -15 11 -24 2 -23 -28 -8
-32 16 -2 17 5 20 21 8z m-226 -38 c5 3 8 -1 7 -9 -1 -9 -5 -14 -8 -13 -3 2
-16 -6 -28 -17 l-23 -20 12 22 c6 12 8 30 4 40 -6 16 -5 16 10 5 9 -8 20 -11
26 -8z m-1119 -16 c14 -13 26 -21 28 -20 2 2 6 1 9 -1 3 -3 -1 -5 -9 -3 -17 2
-75 46 -61 46 5 0 20 -10 33 -22z m210 12 c0 -5 -2 -10 -4 -10 -3 0 -8 5 -11
10 -3 6 -1 10 4 10 6 0 11 -4 11 -10z m840 -11 c0 -5 -4 -9 -10 -9 -5 0 -10 7
-10 16 0 8 5 12 10 9 6 -3 10 -10 10 -16z m120 -64 c10 -15 7 -14 -13 4 -15
14 -27 29 -27 33 0 10 16 -5 40 -37z m20 10 c0 -5 -5 -3 -10 5 -5 8 -10 20
-10 25 0 6 5 3 10 -5 5 -8 10 -19 10 -25z m-1115 7 c-3 -3 -11 0 -18 7 -9 10
-8 11 6 5 10 -3 15 -9 12 -12z m160 -2 c3 -5 2 -10 -4 -10 -5 0 -13 5 -16 10
-3 6 -2 10 4 10 5 0 13 -4 16 -10z m-101 -15 c11 -8 16 -15 10 -15 -5 0 -18 7
-28 15 -11 8 -16 15 -10 15 5 0 18 -7 28 -15z m923 9 c-3 -3 -12 -4 -19 -1 -8
3 -5 6 6 6 11 1 17 -2 13 -5z m63 1 c0 -2 -6 -8 -13 -14 -10 -8 -14 -7 -14 2
0 8 6 14 14 14 7 0 13 -1 13 -2z m20 -9 c0 -2 -8 -10 -17 -17 -16 -13 -17 -12
-4 4 13 16 21 21 21 13z m254 -39 c7 -5 3 -7 -8 -5 -12 2 -20 13 -22 28 -4 23
-3 24 8 5 6 -11 16 -24 22 -28z m-223 6 c13 -16 12 -17 -3 -4 -10 7 -18 15
-18 17 0 8 8 3 21 -13z m-2951 -3 c0 -5 -5 -10 -11 -10 -5 0 -7 5 -4 10 3 6 8
10 11 10 2 0 4 -4 4 -10z m3077 -15 c0 -8 -4 -12 -9 -9 -5 3 -6 10 -3 15 9 13
12 11 12 -6z m-223 -7 c-5 -8 -1 -9 12 -5 19 7 19 7 0 -8 -23 -17 -42 -9 -25
11 14 17 23 19 13 2z m-2854 -8 c0 -5 -2 -10 -4 -10 -3 0 -8 5 -11 10 -3 6 -1
10 4 10 6 0 11 -4 11 -10z m135 -29 c3 -5 2 -12 -3 -15 -5 -3 -9 1 -9 9 0 17
3 19 12 6z m70 -9 c-3 -3 -11 0 -18 7 -9 10 -8 11 6 5 10 -3 15 -9 12 -12z
m-98 -7 c0 -8 -4 -15 -9 -15 -10 0 -11 14 -1 23 9 10 10 9 10 -8z m-15 -50 c2
3 5 -2 5 -10 0 -8 -7 -17 -16 -20 -9 -4 -18 -7 -20 -8 -7 -3 -10 36 -5 45 3 5
11 4 18 -1 7 -6 15 -9 18 -6z m58 9 c0 -8 -19 -13 -24 -6 -3 5 1 9 9 9 8 0 15
-2 15 -3z m1067 -46 c-3 -8 -6 -5 -6 6 -1 11 2 17 5 13 3 -3 4 -12 1 -19z
m-1085 -17 c-4 -10 -7 -11 -10 -3 -2 7 -8 10 -12 7 -5 -3 -7 -12 -3 -20 4 -11
1 -13 -11 -9 -15 6 -15 8 -1 24 19 21 45 22 37 1z m1205 13 c-3 -3 -12 -4 -19
-1 -8 3 -5 6 6 6 11 1 17 -2 13 -5z m70 -26 c-3 -8 -6 -5 -6 6 -1 11 2 17 5
13 3 -3 4 -12 1 -19z m-1238 -151 c-1 -17 -2 -18 -6 -4 -2 9 -8 15 -13 12 -5
-3 -11 -2 -14 3 -2 4 4 9 15 9 14 1 19 -4 18 -20z m76 13 c-3 -5 -12 -10 -18
-10 -7 0 -6 4 3 10 19 12 23 12 15 0z m-18 -34 c4 -4 3 -6 -3 -4 -7 2 -12 0
-13 -4 -1 -5 1 -8 4 -8 3 0 12 -5 19 -12 12 -11 12 -14 -1 -21 -8 -5 -16 -7
-17 -5 -23 35 -34 57 -30 61 7 7 32 3 41 -7z m3313 -59 c0 -2 -10 -12 -22 -23
l-23 -19 19 23 c18 21 26 27 26 19z m-1047 -32 c-3 -9 -8 -14 -10 -11 -3 3 -2
9 2 15 9 16 15 13 8 -4z m-2178 -4 c6 -1 4 -5 -4 -10 -15 -10 -41 -4 -41 9 0
5 8 7 18 5 9 -2 22 -4 27 -4z m45 -66 c0 -8 -4 -15 -10 -15 -5 0 -7 7 -4 15 4
8 8 15 10 15 2 0 4 -7 4 -15z m2700 -59 c0 -3 -4 -8 -10 -11 -5 -3 -10 -1 -10
4 0 6 5 11 10 11 6 0 10 -2 10 -4z m-2570 -26 c0 -5 -4 -10 -10 -10 -5 0 -10
5 -10 10 0 6 5 10 10 10 6 0 10 -4 10 -10z m2334 -6 c3 -8 2 -12 -4 -9 -6 3
-10 10 -10 16 0 14 7 11 14 -7z m190 -11 c-34 -31 -54 -46 -54 -40 0 10 54 57
64 57 6 0 1 -8 -10 -17z m186 4 c0 -2 -15 -14 -32 -27 l-33 -23 24 26 c21 23
41 35 41 24z"/>
<path d="M2801 4623 c-21 -43 -94 -241 -143 -388 -28 -84 -37 -100 -58 -106
-14 -4 -18 -7 -8 -8 9 -1 19 -4 22 -9 2 -4 -8 -54 -22 -112 l-27 -105 -56 -1
c-41 0 -65 -6 -90 -24 -47 -32 -89 -72 -89 -84 0 -5 17 6 38 26 78 77 150 86
232 32 58 -38 70 -52 111 -123 84 -149 56 -381 -56 -480 -48 -42 -74 -51 -143
-51 -50 0 -63 4 -97 33 -73 59 -100 102 -139 221 -13 39 -15 8 -2 -40 28 -108
61 -155 163 -234 18 -13 19 -25 15 -102 -2 -49 -8 -88 -13 -88 -5 0 -9 14 -9
31 0 16 -4 28 -9 25 -10 -6 -25 24 -16 32 3 3 5 0 5 -7 0 -7 5 -9 10 -6 16 10
11 23 -7 20 -10 -2 -26 -4 -35 -4 -10 -1 -18 -8 -18 -16 0 -16 -12 -20 -23 -8
-4 3 2 12 12 19 10 8 21 25 23 38 4 21 0 27 -25 35 -24 9 -27 8 -18 -3 6 -7 8
-16 4 -19 -3 -4 1 -7 10 -7 16 0 16 -2 0 -18 -20 -21 -38 -18 -48 6 -5 14 -4
15 6 5 26 -26 41 -7 17 19 -18 19 -20 38 -5 39 6 0 3 4 -8 8 -27 11 -37 4 -29
-22 6 -18 2 -16 -18 8 -43 51 -65 102 -124 294 -3 8 -6 12 -9 10 -7 -7 32
-170 55 -232 30 -79 126 -207 184 -243 26 -16 64 -40 84 -54 32 -22 48 -25
122 -25 77 0 91 4 149 34 115 59 204 175 249 322 30 96 44 241 32 330 -5 41
-6 77 -2 80 6 5 52 19 157 49 102 29 301 93 308 99 10 10 -17 133 -46 212 -76
201 -216 403 -349 503 -76 56 -204 126 -231 126 -9 0 -25 -17 -36 -37z m-416
-1593 c3 -5 -1 -10 -10 -10 -9 0 -13 5 -10 10 3 6 8 10 10 10 2 0 7 -4 10 -10z
m30 -20 c3 -5 1 -10 -4 -10 -6 0 -11 5 -11 10 0 6 2 10 4 10 3 0 8 -4 11 -10z"/>
<path d="M2441 4128 c-41 -11 -99 -47 -126 -79 -19 -21 -18 -21 15 3 46 34 98
60 135 68 16 3 25 8 20 11 -6 4 -25 2 -44 -3z"/>
<path d="M2533 4133 c9 -2 23 -2 30 0 6 3 -1 5 -18 5 -16 0 -22 -2 -12 -5z"/>
<path d="M2205 3919 c-4 -6 -5 -12 -2 -15 2 -3 7 2 10 11 7 17 1 20 -8 4z"/>
<path d="M1953 3262 c-54 -34 -54 -43 -4 -189 95 -278 271 -503 480 -616 84
-45 94 -40 80 38 -5 33 -12 87 -15 120 -2 33 -7 67 -10 75 -3 8 -36 30 -75 48
-114 55 -247 199 -308 335 -28 62 -69 169 -73 192 -5 28 -27 28 -75 -3z"/>
<path d="M2230 3235 c0 -2 9 -18 19 -36 18 -29 37 -27 26 3 -5 13 -45 43 -45
33z"/>
<path d="M2600 2846 c0 -2 7 -7 16 -10 8 -3 12 -2 9 4 -6 10 -25 14 -25 6z"/>
<path d="M2685 2830 c3 -5 8 -10 11 -10 2 0 4 5 4 10 0 6 -5 10 -11 10 -5 0
-7 -4 -4 -10z"/>
<path d="M3185 2780 c-4 -6 -12 -7 -18 -3 -7 4 -6 0 2 -10 12 -16 8 -22 -12
-18 -5 1 -6 -3 -2 -9 5 -8 11 -7 21 1 8 6 12 14 9 17 -3 3 0 11 6 19 6 7 9 13
6 13 -3 0 -9 -5 -12 -10z"/>
<path d="M3050 2741 c0 -6 4 -13 10 -16 6 -3 7 1 4 9 -7 18 -14 21 -14 7z"/>
<path d="M3025 2690 c1 -17 -1 -33 -6 -36 -5 -3 -7 -10 -3 -15 3 -5 0 -18 -7
-27 -7 -9 -9 -14 -5 -10 5 4 14 4 20 -1 8 -7 11 7 11 49 0 32 -3 61 -6 65 -4
3 -5 -8 -4 -25z"/>
<path d="M2925 2701 c-3 -5 -2 -12 3 -15 5 -3 9 1 9 9 0 17 -3 19 -12 6z"/>
<path d="M2770 2686 c0 -2 8 -10 18 -17 15 -13 16 -12 3 4 -13 16 -21 21 -21
13z"/>
<path d="M3084 2665 c0 -13 3 -22 7 -19 8 4 6 30 -2 38 -3 3 -5 -5 -5 -19z"/>
<path d="M2770 2657 c0 -2 6 -10 14 -16 11 -9 16 -9 22 1 4 7 4 10 -1 6 -4 -4
-14 -3 -22 3 -7 6 -13 9 -13 6z"/>
<path d="M3196 2652 c-3 -5 1 -9 9 -9 8 0 12 4 9 9 -3 4 -7 8 -9 8 -2 0 -6 -4
-9 -8z"/>
<path d="M2804 2616 c-3 -8 -4 -23 -2 -33 3 -11 6 -6 9 15 6 34 2 42 -7 18z"/>
<path d="M3100 2614 c0 -6 7 -19 16 -30 14 -18 14 -18 3 6 -14 31 -19 36 -19
24z"/>
<path d="M3050 2579 c0 -5 5 -7 10 -4 6 3 10 8 10 11 0 2 -4 4 -10 4 -5 0 -10
-5 -10 -11z"/>
<path d="M5852 2418 c-7 -7 -12 -16 -12 -21 0 -5 7 -1 16 8 9 9 14 18 12 20
-2 3 -10 -1 -16 -7z"/>
<path d="M6185 2241 c-3 -5 -2 -12 3 -15 5 -3 9 1 9 9 0 17 -3 19 -12 6z"/>
<path d="M5675 2201 c-3 -5 -2 -12 3 -15 5 -3 9 1 9 9 0 17 -3 19 -12 6z"/>
<path d="M5724 2196 c1 -8 5 -18 8 -22 4 -3 5 1 4 10 -1 8 -5 18 -8 22 -4 3
-5 -1 -4 -10z"/>
<path d="M5650 2191 c0 -6 4 -13 10 -16 6 -3 7 1 4 9 -7 18 -14 21 -14 7z"/>
<path d="M5607 2174 c4 -12 3 -15 -5 -10 -16 10 -15 1 1 -12 10 -8 13 -6 14 8
1 11 -2 22 -8 25 -5 4 -6 -2 -2 -11z"/>
<path d="M5630 2181 c0 -6 4 -13 10 -16 6 -3 7 1 4 9 -7 18 -14 21 -14 7z"/>
<path d="M5755 2161 c-3 -5 -2 -12 3 -15 5 -3 9 1 9 9 0 17 -3 19 -12 6z"/>
<path d="M5805 2161 c-3 -5 -2 -12 3 -15 5 -3 9 1 9 9 0 17 -3 19 -12 6z"/>
<path d="M5975 2161 c-3 -5 -2 -12 3 -15 5 -3 9 1 9 9 0 17 -3 19 -12 6z"/>
<path d="M6060 2164 c0 -5 14 -20 30 -32 17 -13 30 -18 30 -13 0 6 -10 16 -22
22 -13 7 -26 17 -30 23 -5 7 -8 8 -8 0z"/>
<path d="M6003 2145 c0 -8 4 -12 9 -9 4 3 8 -1 8 -8 0 -9 3 -9 10 2 7 11 10
11 10 2 0 -7 5 -10 11 -7 12 8 7 16 -13 19 -7 1 -18 5 -24 8 -6 4 -11 1 -11
-7z"/>
<path d="M5775 2131 c-3 -5 -2 -12 3 -15 5 -3 9 1 9 9 0 17 -3 19 -12 6z"/>
<path d="M5889 2138 c-5 -18 -6 -38 -1 -34 7 8 12 36 6 36 -2 0 -4 -1 -5 -2z"/>
<path d="M5925 2116 c17 -28 17 -29 -1 -22 -13 4 -12 0 6 -14 19 -15 21 -20 8
-20 -9 0 -18 -5 -20 -12 -5 -14 -60 6 -90 31 -19 17 -51 24 -42 10 3 -5 9 -7
13 -5 4 3 24 -11 45 -30 l38 -35 40 21 c21 11 49 29 60 40 19 17 19 20 5 20
-9 0 -17 -4 -17 -10 0 -5 -7 -10 -16 -10 -14 0 -14 3 -4 16 8 9 9 14 2 12 -6
-2 -18 6 -27 17 -15 18 -15 17 0 -9z"/>
<path d="M5757 2083 c-2 -5 -2 -17 1 -28 2 -11 5 -35 5 -53 0 -19 5 -31 11
-29 6 2 10 16 8 31 -2 24 5 31 25 24 4 -2 8 -9 9 -16 2 -10 -1 -11 -12 -1 -10
8 -14 9 -14 0 0 -6 7 -14 15 -17 8 -4 12 -10 9 -15 -3 -5 1 -6 9 -3 9 3 13 14
11 27 -2 12 -2 16 2 10 3 -7 11 -13 17 -13 6 0 -2 14 -18 30 -19 20 -31 26
-36 19 -11 -19 -38 -2 -34 21 4 20 0 27 -8 13z"/>
<path d="M5891 2074 c0 -11 3 -14 6 -6 3 7 2 16 -1 19 -3 4 -6 -2 -5 -13z"/>
<path d="M5596 2044 c-3 -9 -6 -25 -6 -37 0 -18 2 -19 10 -7 8 12 10 12 10 1
0 -8 3 -11 6 -8 4 4 2 13 -5 20 -6 8 -9 22 -5 31 3 9 4 16 1 16 -3 0 -8 -7
-11 -16z"/>
<path d="M5673 1986 c-1 -11 1 -15 4 -7 4 10 10 8 20 -10 8 -14 12 -16 9 -6
-3 10 -6 22 -6 27 0 19 -26 16 -27 -4z"/>
<path d="M4024 2569 c-4 -7 -3 -9 4 -5 6 3 16 -3 22 -14 6 -11 15 -18 21 -15
5 4 9 -4 9 -17 0 -29 28 -71 41 -62 6 3 13 -3 16 -15 3 -11 9 -18 14 -16 4 3
4 16 0 28 -9 24 -4 74 9 82 4 2 5 -8 3 -23 -4 -21 -2 -24 6 -12 9 12 11 13 11
1 0 -8 3 -11 6 -8 4 4 2 12 -3 19 -5 7 -9 25 -8 40 1 18 -2 25 -12 21 -7 -3
-13 -9 -13 -15 0 -5 -4 -7 -9 -3 -5 3 -12 1 -16 -5 -3 -5 -11 -10 -17 -10 -6
0 -5 7 3 18 13 15 12 16 -3 3 -10 -7 -18 -10 -18 -6 0 4 -8 1 -17 -6 -15 -12
-16 -12 -9 6 4 11 4 16 0 12 -4 -4 -13 -2 -20 4 -8 7 -14 6 -20 -2z m133 -27
c-10 -10 -17 -25 -17 -33 0 -8 -7 -22 -14 -31 -12 -16 -14 -16 -24 5 -6 12
-13 32 -15 45 -4 18 -3 21 8 12 7 -6 11 -21 8 -33 -2 -12 3 -8 11 11 9 18 20
31 25 28 5 -4 12 -2 16 4 3 5 9 10 12 10 3 0 -1 -8 -10 -18z"/>
<path d="M4117 2501 c-4 -17 -3 -21 5 -13 5 5 8 16 6 23 -3 8 -7 3 -11 -10z"/>
<path d="M4234 2464 c-6 -3 -8 -18 -6 -35 l4 -30 14 27 c15 27 9 45 -12 38z"/>
<path d="M4176 2444 c-8 -21 12 -26 23 -6 7 14 6 19 -4 19 -8 0 -16 -6 -19
-13z"/>
<path d="M4696 2372 c-3 -5 1 -9 9 -9 8 0 15 4 15 9 0 4 -4 8 -9 8 -6 0 -12
-4 -15 -8z"/>
<path d="M4660 2268 c0 -4 4 -8 9 -8 6 0 12 4 15 8 3 5 -1 9 -9 9 -8 0 -15 -4
-15 -9z"/>
<path d="M4295 7400 c-5 -7 -38 -11 -94 -9 -126 2 -142 -4 -26 -10 l100 -6 3
-30 c4 -29 4 -29 19 13 14 42 13 66 -2 42z"/>
<path d="M4007 7276 c-20 -18 -37 -39 -37 -46 0 -7 9 -1 20 13 21 27 73 57 97
57 8 0 28 -13 44 -29 21 -22 29 -39 29 -66 0 -78 -53 -145 -115 -145 -44 0
-77 38 -86 98 l-6 47 -2 -51 c-1 -57 22 -98 66 -115 34 -13 103 19 134 62 34
49 34 146 0 183 -37 40 -96 36 -144 -8z"/>
<path d="M4268 7304 c-5 -4 -8 -19 -8 -33 1 -23 2 -24 11 -8 11 19 9 53 -3 41z"/>
<path d="M4033 7253 c-43 -27 -53 -46 -53 -99 0 -62 65 -95 116 -59 25 17 54
74 54 103 0 23 -46 82 -64 82 -7 0 -31 -12 -53 -27z m82 -19 c28 -30 29 -37
14 -67 -35 -68 -93 -88 -123 -42 -9 13 -16 35 -16 48 0 31 55 82 93 86 4 1 19
-11 32 -25z"/>
<path d="M3462 7190 c-26 -21 -29 -45 -6 -54 9 -4 17 -5 18 -4 12 27 23 69 18
72 -4 2 -17 -4 -30 -14z"/>
<path d="M5212 6890 c0 -14 2 -19 5 -12 2 6 2 18 0 25 -3 6 -5 1 -5 -13z"/>
<path d="M4131 6726 c-9 -10 -7 -17 6 -27 11 -9 14 -10 9 -1 -4 6 -3 12 3 12
5 0 12 -6 14 -12 4 -10 6 -10 6 0 1 7 5 11 10 8 5 -3 11 1 15 9 7 19 -12 31
-27 16 -14 -14 -30 -15 -22 -1 9 15 -1 12 -14 -4z"/>
<path d="M3660 6653 c1 -16 39 -57 46 -50 10 10 -17 57 -33 57 -7 0 -13 -3
-13 -7z"/>
<path d="M3570 6632 c0 -13 35 -42 50 -42 9 0 5 9 -10 25 -24 25 -40 32 -40
17z"/>
<path d="M3640 6558 c1 -20 76 -91 91 -86 8 3 -1 20 -30 51 -44 47 -61 57 -61
35z"/>
<path d="M3990 6258 c-22 -33 -40 -66 -40 -72 0 -6 16 13 35 42 19 29 41 60
50 68 18 18 19 24 5 24 -6 0 -28 -28 -50 -62z"/>
<path d="M3936 6153 c-6 -14 -5 -15 5 -6 7 7 10 15 7 18 -3 3 -9 -2 -12 -12z"/>
<path d="M6254 6156 c-10 -8 -16 -17 -13 -20 7 -7 59 16 59 27 0 12 -25 8 -46
-7z"/>
<path d="M3922 6105 c0 -16 2 -22 5 -12 2 9 2 23 0 30 -3 6 -5 -1 -5 -18z"/>
<path d="M6138 6105 c-47 -25 -69 -45 -48 -45 19 0 110 50 110 60 0 14 -9 12
-62 -15z"/>
<path d="M6040 5830 c0 -5 10 -15 23 -21 22 -12 22 -12 3 10 -21 23 -26 26
-26 11z"/>
<path d="M6192 5728 c2 -6 14 -15 26 -19 20 -8 21 -6 12 11 -11 21 -44 28 -38
8z"/>
<path d="M6316 5677 c32 -34 78 -83 101 -109 43 -47 113 -101 121 -93 3 3 -15
24 -39 49 -24 24 -82 83 -129 130 -97 98 -144 118 -54 23z"/>
<path d="M6299 5463 c-13 -16 -12 -17 4 -4 9 7 17 15 17 17 0 8 -8 3 -21 -13z"/>
<path d="M3972 5450 c0 -14 2 -19 5 -12 2 6 2 18 0 25 -3 6 -5 1 -5 -13z"/>
<path d="M6500 5466 c0 -10 50 -97 68 -118 7 -9 20 -14 27 -12 8 4 20 -7 29
-25 9 -17 26 -36 37 -42 19 -10 18 -4 -11 47 -35 64 -80 117 -80 96 0 -8 7
-20 15 -28 8 -9 15 -21 15 -27 -1 -16 -40 31 -40 47 0 7 -13 25 -30 41 -16 16
-30 25 -30 21z"/>
<path d="M3920 5444 c0 -8 5 -12 10 -9 6 4 8 11 5 16 -9 14 -15 11 -15 -7z"/>
<path d="M3835 5441 c-3 -5 -1 -12 5 -16 5 -3 10 1 10 9 0 18 -6 21 -15 7z"/>
<path d="M6041 5434 c0 -11 3 -14 6 -6 3 7 2 16 -1 19 -3 4 -6 -2 -5 -13z"/>
<path d="M3790 5411 c0 -5 7 -15 17 -22 15 -13 15 -12 4 9 -12 23 -21 28 -21
13z"/>
<path d="M6080 5276 c0 -2 7 -7 16 -10 8 -3 12 -2 9 4 -6 10 -25 14 -25 6z"/>
<path d="M6195 5250 c-3 -5 -1 -10 4 -10 6 0 11 5 11 10 0 6 -2 10 -4 10 -3 0
-8 -4 -11 -10z"/>
<path d="M6060 5088 c0 -2 -3 -64 -6 -139 -4 -106 -3 -137 8 -146 27 -22 256
-93 339 -104 66 -10 105 -10 169 -1 85 12 163 45 168 72 2 14 -108 194 -161
263 -24 31 -24 31 -52 13 -68 -45 -219 -39 -372 15 -78 28 -93 32 -93 27z m61
-266 c-7 -2 -18 1 -23 6 -8 8 -4 9 13 5 13 -4 18 -8 10 -11z m44 -12 c3 -6 -1
-7 -9 -4 -18 7 -21 14 -7 14 6 0 13 -4 16 -10z m40 -18 c-3 -3 -11 0 -18 7 -9
10 -8 11 6 5 10 -3 15 -9 12 -12z m85 -22 c8 -5 11 -10 5 -10 -5 0 -17 5 -25
10 -8 5 -10 10 -5 10 6 0 17 -5 25 -10z m55 -10 c3 -5 -1 -10 -9 -10 -8 0 -18
5 -21 10 -3 6 1 10 9 10 8 0 18 -4 21 -10z m60 -10 c3 -5 -1 -10 -10 -10 -9 0
-13 5 -10 10 3 6 8 10 10 10 2 0 7 -4 10 -10z"/>
<path d="M4504 4698 c-27 -12 -54 -59 -54 -93 0 -35 61 -95 96 -95 37 0 82 27
99 59 27 53 -3 117 -62 136 -34 10 -27 -8 10 -25 62 -29 62 -107 -1 -141 -58
-31 -122 11 -122 79 0 28 35 72 58 72 6 0 13 4 16 8 7 11 -15 11 -40 0z"/>
<path d="M4070 4648 c-142 -86 -183 -118 -149 -118 17 0 181 103 186 118 9 22
-1 22 -37 0z"/>
<path d="M4508 4636 c-14 -31 -5 -53 26 -67 31 -15 53 -6 68 26 9 21 8 28 -7
45 -10 11 -23 20 -28 20 -6 0 -3 -8 6 -18 25 -27 21 -51 -9 -58 -18 -5 -29 -1
-39 12 -12 17 -11 22 7 42 19 19 19 22 5 22 -10 0 -22 -11 -29 -24z"/>
<path d="M4055 4503 c-104 -53 -101 -51 -89 -63 12 -12 204 79 204 97 0 21
-19 15 -115 -34z"/>
<path d="M4100 4416 c-60 -28 -96 -50 -99 -61 -4 -21 -8 -22 126 37 83 36 107
56 77 64 -5 2 -52 -17 -104 -40z"/>
<path d="M4133 4309 c-61 -20 -93 -35 -93 -45 0 -18 -4 -19 116 18 64 19 104
37 104 45 0 19 -23 16 -127 -18z"/>
<path d="M7110 3850 c-8 -5 -11 -12 -7 -16 4 -4 13 -2 19 4 15 15 7 24 -12 12z"/>
<path d="M6950 3790 c0 -5 7 -10 15 -10 8 0 15 5 15 10 0 6 -7 10 -15 10 -8 0
-15 -4 -15 -10z"/>
<path d="M6146 3749 c-53 -63 -18 -179 54 -179 34 0 84 57 77 87 -3 15 -6 14
-15 -8 -26 -63 -68 -75 -107 -33 -34 36 -33 83 1 118 15 14 34 26 44 26 18 0
60 -40 60 -58 0 -6 5 -14 11 -18 20 -12 0 48 -23 74 -31 32 -71 29 -102 -9z"/>
<path d="M6958 3733 c7 -3 16 -2 19 1 4 3 -2 6 -13 5 -11 0 -14 -3 -6 -6z"/>
<path d="M6172 3710 c-25 -41 -9 -90 30 -90 36 0 50 66 20 93 -24 22 -34 21
-50 -3z m49 -21 c9 -17 8 -25 -5 -37 -15 -15 -17 -15 -32 0 -13 12 -14 20 -5
37 7 11 16 21 21 21 5 0 14 -10 21 -21z"/>
<path d="M6960 3659 c0 -5 5 -7 10 -4 6 3 10 8 10 11 0 2 -4 4 -10 4 -5 0 -10
-5 -10 -11z"/>
<path d="M6950 3610 c0 -5 6 -10 14 -10 8 0 18 5 21 10 3 6 -3 10 -14 10 -12
0 -21 -4 -21 -10z"/>
<path d="M7180 3300 c0 -5 5 -10 10 -10 6 0 10 5 10 10 0 6 -4 10 -10 10 -5 0
-10 -4 -10 -10z"/>
<path d="M4090 3161 c0 -11 4 -22 9 -25 4 -3 6 6 3 19 -5 30 -12 33 -12 6z"/>
<path d="M5419 2758 c-12 -22 -11 -22 7 -8 10 8 20 15 22 16 2 1 -1 5 -7 8 -5
4 -15 -4 -22 -16z"/>
<path d="M4295 2709 c-4 -6 -5 -12 -2 -15 2 -3 7 2 10 11 7 17 1 20 -8 4z"/>
<path d="M5345 2710 c4 -6 11 -8 16 -5 14 9 11 15 -7 15 -8 0 -12 -5 -9 -10z"/>
<path d="M4360 2700 c0 -5 5 -10 11 -10 5 0 7 5 4 10 -3 6 -8 10 -11 10 -2 0
-4 -4 -4 -10z"/>
<path d="M4409 2702 c9 -7 10 -11 2 -15 -7 -4 -8 -5 0 -3 15 2 13 20 -3 24
-10 3 -10 2 1 -6z"/>
<path d="M4450 2690 c8 -5 22 -10 30 -10 13 0 13 1 0 10 -8 5 -22 10 -30 10
-13 0 -13 -1 0 -10z"/>
<path d="M4330 2670 c-7 -12 -18 -19 -26 -16 -11 4 -11 2 -2 -13 6 -11 17 -17
25 -14 7 3 10 9 7 14 -3 6 0 17 7 25 6 8 9 17 6 20 -3 3 -11 -4 -17 -16z"/>
<path d="M4155 2661 c-3 -5 -2 -12 3 -15 5 -3 9 1 9 9 0 17 -3 19 -12 6z"/>
<path d="M4518 2663 c7 -3 16 -2 19 1 4 3 -2 6 -13 5 -11 0 -14 -3 -6 -6z"/>
<path d="M4125 2649 c-4 -6 -5 -12 -2 -15 2 -3 7 2 10 11 7 17 1 20 -8 4z"/>
<path d="M4395 2651 c-28 -12 -55 -44 -64 -77 -11 -41 14 -87 61 -114 35 -20
45 -21 78 -11 43 13 90 62 90 93 0 80 -90 139 -165 109z m79 -31 c32 -12 56
-58 46 -86 -9 -23 -50 -57 -59 -49 -3 3 5 12 17 21 42 29 17 104 -35 104 -30
0 -65 -35 -61 -63 2 -12 18 -32 37 -44 22 -15 28 -23 17 -23 -29 0 -53 18 -66
50 -10 25 -10 34 4 55 15 23 45 42 68 44 4 1 18 -3 32 -9z m-7 -56 c3 -8 -1
-22 -9 -30 -12 -12 -17 -12 -33 0 -16 12 -17 16 -6 30 17 20 40 21 48 0z"/>
<path d="M4095 2641 c-3 -5 -2 -12 3 -15 5 -3 9 1 9 9 0 17 -3 19 -12 6z"/>
<path d="M6800 2550 c0 -5 5 -10 11 -10 5 0 7 5 4 10 -3 6 -8 10 -11 10 -2 0
-4 -4 -4 -10z"/>
<path d="M3973 2523 c4 -3 2 -12 -4 -19 -7 -9 -6 -12 8 -9 10 1 30 -8 44 -22
27 -25 52 -16 30 11 -6 7 -7 17 -3 22 4 4 -1 2 -12 -6 -16 -13 -20 -12 -36 8
-10 12 -22 22 -26 22 -4 0 -4 -3 -1 -7z m71 -49 c3 -8 2 -12 -4 -9 -6 3 -10
10 -10 16 0 14 7 11 14 -7z"/>
<path d="M4997 2507 c-3 -8 1 -14 8 -14 7 0 11 6 8 14 -3 7 -6 13 -8 13 -2 0
-5 -6 -8 -13z"/>
<path d="M4310 2487 c0 -17 5 -27 15 -27 19 0 19 9 0 34 -14 19 -15 19 -15 -7z"/>
<path d="M4836 2501 c-3 -5 2 -15 12 -22 15 -12 16 -12 5 2 -7 9 -10 19 -6 22
3 4 4 7 0 7 -3 0 -8 -4 -11 -9z"/>
<path d="M4603 2485 c0 -8 4 -12 9 -9 5 3 6 10 3 15 -9 13 -12 11 -12 -6z"/>
<path d="M4944 2480 c2 -16 20 -14 24 2 3 10 2 10 -6 -1 -7 -9 -11 -10 -15 -2
-4 7 -5 8 -3 1z"/>
<path d="M4896 2445 c5 -26 3 -27 -13 -15 -15 12 -16 12 -6 0 10 -11 10 -17 0
-29 -7 -10 -3 -9 10 3 21 17 26 47 10 62 -3 4 -4 -6 -1 -21z"/>
<path d="M4574 2426 c3 -16 8 -31 11 -35 3 -3 4 7 1 23 -3 16 -8 31 -11 35 -3
3 -4 -7 -1 -23z"/>
<path d="M4845 2441 c-3 -5 -1 -12 5 -16 6 -4 7 -11 4 -17 -4 -7 -2 -8 5 -4 8
6 9 12 2 20 -6 7 -8 16 -4 19 3 4 4 7 0 7 -3 0 -8 -4 -12 -9z"/>
<path d="M6776 2377 c-19 -24 -47 -69 -62 -101 -42 -92 -13 -117 51 -43 46 51
77 119 73 154 -5 41 -23 38 -62 -10z"/>
<path d="M4420 2325 c-7 -8 -7 -15 -1 -19 5 -4 12 -2 16 4 4 6 11 8 16 5 5 -4
9 -2 9 3 0 17 -28 22 -40 7z"/>
<path d="M4493 2323 c-5 -12 -7 -12 -15 -1 -8 11 -9 11 -6 0 2 -8 8 -14 13
-14 6 0 15 -4 21 -9 6 -5 14 -5 18 -1 4 4 13 7 19 7 5 0 12 7 14 15 4 12 3 12
-5 1 -8 -10 -10 -11 -14 -1 -6 19 -38 21 -45 3z m30 -10 c-3 -7 -6 -13 -8 -13
-2 0 -5 6 -8 13 -3 8 1 14 8 14 7 0 11 -6 8 -14z"/>
<path d="M2415 1980 c-3 -5 -1 -10 4 -10 6 0 11 5 11 10 0 6 -2 10 -4 10 -3 0
-8 -4 -11 -10z"/>
<path d="M2576 1904 c-9 -23 -2 -28 13 -10 7 8 8 17 3 20 -6 3 -13 -1 -16 -10z"/>
<path d="M2420 1771 c0 -5 7 -12 16 -15 14 -5 15 -4 4 9 -14 17 -20 19 -20 6z"/>
<path d="M2476 1761 c-9 -14 5 -41 21 -41 8 0 11 -5 8 -11 -4 -5 1 -19 11 -30
14 -16 20 -17 33 -6 14 11 14 10 2 -6 -15 -20 -12 -27 16 -31 10 -2 18 -10 18
-19 0 -8 4 -19 9 -24 5 -5 6 -2 1 6 -6 11 -2 13 19 7 23 -6 26 -3 26 19 0 14
-4 25 -10 25 -5 0 -20 16 -32 35 -13 19 -28 35 -35 35 -7 0 -24 11 -39 25 -29
27 -40 30 -48 16z"/>
<path d="M2612 1568 c3 -7 13 -15 24 -17 16 -3 17 -1 5 13 -16 19 -34 21 -29
4z"/>
</g>
</svg>
